<svg width="27" height="39" viewBox="0 0 27 39" fill="none" xmlns="http://www.w3.org/2000/svg">
<path d="M14.75 1H12.25C6.0368 1 1 6.0368 1 12.25V27.25C1 33.4632 6.0368 38.5 12.25 38.5H14.75C20.9632 38.5 26 33.4632 26 27.25V12.25C26 6.0368 20.9632 1 14.75 1Z" stroke="white" stroke-linecap="round" stroke-linejoin="round"/>
<path d="M16 12.25C16 12.913 15.7366 13.5489 15.2678 14.0178C14.7989 14.4866 14.163 14.75 13.5 14.75C12.837 14.75 12.2011 14.4866 11.7322 14.0178C11.2634 13.5489 11 12.913 11 12.25V9.75C11 9.08696 11.2634 8.45107 11.7322 7.98223C12.2011 7.51339 12.837 7.25 13.5 7.25C14.163 7.25 14.7989 7.51339 15.2678 7.98223C15.7366 8.45107 16 9.08696 16 9.75V12.25Z" stroke="white" stroke-linecap="round" stroke-linejoin="round"/>
</svg>
