<?xml version="1.0" encoding="UTF-8" standalone="no"?> <svg xmlns="http://www.w3.org/2000/svg" xmlns:xlink="http://www.w3.org/1999/xlink" xmlns:serif="http://www.serif.com/" width="100%" height="100%" viewBox="0 0 20 20" xml:space="preserve" style="fill-rule:evenodd;clip-rule:evenodd;stroke-linejoin:round;stroke-miterlimit:2;"> <g transform="matrix(1.28571,0,0,1.21429,-5.42857,-0.928571)"> <circle cx="12" cy="9" r="7" style="fill:#fff"></circle> </g> <path d="M10,20C15.523,20 20,15.523 20,10C20,4.477 15.523,0 10,0C4.477,0 0,4.477 0,10C0,15.523 4.477,20 10,20ZM8.167,14.583C8.41,14.583 8.521,14.475 8.655,14.344L8.667,14.333L9.868,13.166L12.367,15.012C12.826,15.265 13.158,15.134 13.273,14.585L14.913,6.854C15.081,6.181 14.657,5.876 14.217,6.075L4.584,9.79C3.927,10.053 3.93,10.42 4.464,10.584L6.936,11.355L12.659,7.745C12.929,7.581 13.177,7.669 12.974,7.85L8.336,12.034L8.337,12.035L8.167,14.583Z" style="fill:#37AEE2;"></path> </svg> 