<?xml version="1.0" encoding="UTF-8" standalone="no"?> <svg xmlns="http://www.w3.org/2000/svg" xmlns:xlink="http://www.w3.org/1999/xlink" xmlns:serif="http://www.serif.com/" width="100%" height="100%" viewBox="0 0 20 20" xml:space="preserve" style="fill-rule:evenodd;clip-rule:evenodd;stroke-linejoin:round;stroke-miterlimit:2;"> <g> <g transform="matrix(1.0625,0,0,1.0625,-2.75,-0.625)"> <circle cx="12" cy="10" r="8" style="fill:#fff;"></circle> </g> <path d="M20,10C20,15.523 15.523,20 10,20C4.477,20 0,15.523 0,10C0,4.477 4.477,0 10,0C15.523,0 20,4.477 20,10ZM10.327,15.564L10.33,15.564C13.608,15.562 16.274,12.895 16.276,9.617C16.276,8.028 15.659,6.535 14.536,5.411C13.413,4.287 11.92,3.667 10.329,3.667C7.052,3.667 4.384,6.334 4.383,9.613C4.383,10.661 4.656,11.684 5.177,12.585L4.333,15.667L7.485,14.84C8.354,15.314 9.332,15.563 10.327,15.564Z" style="fill:#7D3DAF;"></path> <path d="M7.812,13.87L7.631,13.763L5.761,14.254L6.26,12.43L6.143,12.243C5.648,11.456 5.387,10.547 5.387,9.613C5.388,6.888 7.605,4.671 10.331,4.671C11.652,4.671 12.892,5.186 13.826,6.12C14.759,7.055 15.272,8.296 15.272,9.617C15.271,12.342 13.054,14.559 10.329,14.559L10.327,14.559C9.441,14.559 8.571,14.321 7.812,13.87ZM13.122,10.898C13.226,10.948 13.296,10.981 13.325,11.031C13.363,11.093 13.363,11.391 13.239,11.738C13.115,12.085 12.521,12.402 12.236,12.444C11.98,12.483 11.656,12.499 11.3,12.385C11.084,12.317 10.807,12.226 10.453,12.073C9.06,11.471 8.119,10.121 7.941,9.866C7.928,9.848 7.92,9.835 7.915,9.829L7.914,9.827C7.835,9.722 7.308,9.02 7.308,8.292C7.308,7.608 7.644,7.249 7.799,7.084C7.81,7.072 7.819,7.062 7.828,7.053C7.964,6.904 8.125,6.867 8.224,6.867C8.323,6.867 8.423,6.867 8.509,6.872C8.52,6.872 8.531,6.872 8.542,6.872C8.629,6.872 8.737,6.871 8.843,7.127C8.884,7.225 8.944,7.371 9.008,7.525C9.135,7.836 9.277,8.18 9.302,8.23C9.339,8.304 9.363,8.391 9.314,8.49C9.307,8.505 9.3,8.519 9.293,8.533C9.256,8.609 9.229,8.665 9.165,8.738C9.141,8.767 9.115,8.798 9.089,8.83C9.038,8.892 8.987,8.954 8.943,8.999C8.868,9.073 8.791,9.153 8.877,9.302C8.964,9.451 9.262,9.937 9.704,10.331C10.179,10.755 10.591,10.934 10.801,11.024C10.841,11.042 10.875,11.056 10.899,11.069C11.047,11.143 11.134,11.13 11.221,11.031C11.307,10.932 11.592,10.598 11.691,10.449C11.79,10.3 11.889,10.325 12.025,10.374C12.162,10.424 12.892,10.783 13.041,10.858C13.07,10.872 13.097,10.885 13.122,10.898Z" style="fill:#7D3DAF;"></path> </g> </svg> 